<svg xmlns="http://www.w3.org/2000/svg" xmlns:xlink="http://www.w3.org/1999/xlink" width="132" height="132" viewBox="0 0 132 132">
  <defs>
    <clipPath id="clip-path">
      <rect id="Rectangle_1554" data-name="Rectangle 1554" width="76.257" height="84.136" transform="translate(0 0)" fill="none"/>
    </clipPath>
  </defs>
  <g id="Group_5637" data-name="Group 5637" transform="translate(-353 -3740)">
    <rect id="Rectangle_1600" data-name="Rectangle 1600" width="132" height="132" rx="19" transform="translate(353 3740)" fill="#f7f7f7"/>
    <g id="Group_5432" data-name="Group 5432" transform="translate(380.833 3763.309)">
      <g id="Group_5431" data-name="Group 5431" clip-path="url(#clip-path)">
        <path id="Path_6101" data-name="Path 6101" d="M41.749,66.493l-3.59,3.59a2.539,2.539,0,0,1-3.59-3.59l3.59-3.59a2.541,2.541,0,0,0,0-3.59l-3.3-3.3a2.539,2.539,0,0,1,3.59-3.59l3.3,3.3a7.623,7.623,0,0,1,0,10.77" fill="#717f31"/>
        <path id="Path_6102" data-name="Path 6102" d="M47.134,82.649h0a5.076,5.076,0,0,1-7.18,0L22,64.7l7.18-7.18L47.134,75.469a5.076,5.076,0,0,1,0,7.18" fill="#5d6d27"/>
        <path id="Path_6103" data-name="Path 6103" d="M21.86,43.014l11.13,11.13-.216,6.964L20.209,73.674A7.693,7.693,0,0,1,9.366,73.6l-7.18-7.179a7.553,7.553,0,0,1,.072-10.7L14.824,43.158Z" fill="#717f31"/>
        <path id="Path_6104" data-name="Path 6104" d="M27.389,48.543l5.6,5.6-.216,6.965L20.209,73.674A7.693,7.693,0,0,1,9.366,73.6L5.848,70.084Z" fill="#717f31"/>
        <path id="Path_6105" data-name="Path 6105" d="M53.41,10.155a2.537,2.537,0,0,1-2.538-2.538l0-5.079a2.538,2.538,0,0,1,5.077,0V7.616a2.537,2.537,0,0,1-2.538,2.539" fill="#5d6d27"/>
        <path id="Path_6106" data-name="Path 6106" d="M73.719,25.387l-5.078,0a2.538,2.538,0,1,1,0-5.076l5.078,0a2.538,2.538,0,1,1,0,5.076" fill="#5d6d27"/>
        <path id="Path_6107" data-name="Path 6107" d="M70.47,5.461a2.514,2.514,0,0,1,0,3.59l-5.385,5.385a2.539,2.539,0,1,1-3.59-3.59l5.386-5.385a2.513,2.513,0,0,1,3.589,0" fill="#5d6d27"/>
        <path id="Path_6108" data-name="Path 6108" d="M39.954,10.846,65.085,35.977c.718.718,1.616,8.293,2.549,8.437l-7.072,1.472A55.055,55.055,0,0,0,33.384,60.5l-.61.61L14.823,43.157l.61-.61a53.35,53.35,0,0,0,14.5-27.285L31.409,7.9Z" fill="#5d6d27"/>
        <path id="Path_6109" data-name="Path 6109" d="M20.208,55.723a2.514,2.514,0,0,1,0,3.59l-3.59,3.59a2.539,2.539,0,0,1-3.59-3.59l3.59-3.59a2.514,2.514,0,0,1,3.59,0" fill="#434c1f"/>
        <path id="Path_6110" data-name="Path 6110" d="M52.52,23.411,65.086,35.977c.718.718,1.615,8.293,2.548,8.437l-7.072,1.472A55.044,55.044,0,0,0,33.385,60.5l-.611.61L23.8,52.132Z" fill="#5d6d27"/>
        <path id="Path_6111" data-name="Path 6111" d="M20.208,55.723a2.514,2.514,0,0,1,0,3.59l-3.59,3.59a2.512,2.512,0,0,1-3.59,0Z" fill="#434c1f"/>
        <path id="Path_6112" data-name="Path 6112" d="M39.954,3.666,72.265,35.977a5.092,5.092,0,0,1,0,7.181,2.94,2.94,0,0,1-.79.5,4.743,4.743,0,0,1-3.841.754,4.52,4.52,0,0,1-2.549-1.256L32.774,10.846A4.981,4.981,0,0,1,31.409,7.9a5.021,5.021,0,0,1,.611-3.123,5.994,5.994,0,0,1,.754-1.113,5.091,5.091,0,0,1,7.18,0" fill="#717f31"/>
        <path id="Path_6113" data-name="Path 6113" d="M56.11,19.821,72.266,35.977a5.093,5.093,0,0,1,0,7.18,3,3,0,0,1-.79.5,4.741,4.741,0,0,1-3.842.753,4.52,4.52,0,0,1-2.549-1.256L48.929,27Z" fill="#717f31"/>
      </g>
    </g>
  </g>
</svg>
