<svg xmlns="http://www.w3.org/2000/svg" xmlns:xlink="http://www.w3.org/1999/xlink" width="132" height="132" viewBox="0 0 132 132">
  <defs>
    <clipPath id="clip-path">
      <rect id="Rectangle_1555" data-name="Rectangle 1555" width="77.761" height="82.547" transform="translate(0 0)" fill="none"/>
    </clipPath>
  </defs>
  <g id="Group_5636" data-name="Group 5636" transform="translate(-711 -3740)">
    <rect id="Rectangle_1601" data-name="Rectangle 1601" width="132" height="132" rx="19" transform="translate(711 3740)" fill="#f7f7f7"/>
    <g id="Group_5434" data-name="Group 5434" transform="translate(738.12 3763.309)">
      <g id="Group_5433" data-name="Group 5433" clip-path="url(#clip-path)">
        <path id="Path_6114" data-name="Path 6114" d="M77.054,75l-6.841,6.841a2.419,2.419,0,0,1-3.419,0L39.155,54.2A26.083,26.083,0,0,0,49.4,43.925L77.054,71.578A2.421,2.421,0,0,1,77.054,75Z" fill="#717f31"/>
        <path id="Path_6115" data-name="Path 6115" d="M7.815,12.656a26.683,26.683,0,1,1,0,37.735,26.683,26.683,0,0,1,0-37.735" fill="#555f24"/>
        <path id="Path_6116" data-name="Path 6116" d="M53.376,31.524A26.717,26.717,0,0,1,26.689,58.21V4.837A26.685,26.685,0,0,1,53.376,31.524" fill="#555f24"/>
        <path id="Path_6117" data-name="Path 6117" d="M11.235,16.075a21.847,21.847,0,1,1,0,30.9,21.846,21.846,0,0,1,0-30.9" fill="#fff"/>
        <path id="Path_6118" data-name="Path 6118" d="M26.689,53.373V9.673a21.85,21.85,0,1,1,0,43.7" fill="#fff"/>
        <path id="Path_6119" data-name="Path 6119" d="M67.879,2.42l-.016,16.921a2.421,2.421,0,0,1-4.129,1.708l-3.112-3.111L38.149,40.4a2.417,2.417,0,0,1-3.419,0L26.775,32.44,11.757,47.458A21.786,21.786,0,0,1,4.871,32.682L24.866,12.688a2.415,2.415,0,0,1,3.419,0l8.079,8.079L49.909,7.224,46.841,4.156A2.421,2.421,0,0,1,48.548.027L65.461,0a2.42,2.42,0,0,1,2.418,2.42" fill="#5d6d27"/>
        <path id="Path_6120" data-name="Path 6120" d="M67.879,2.42l-.016,16.921a2.421,2.421,0,0,1-4.129,1.708l-3.112-3.111C60.6,17.962,38.167,40.38,38.149,40.4a2.417,2.417,0,0,1-3.419,0L26.775,32.44l-.086.085V11.982a2.407,2.407,0,0,1,1.6.706l8.079,8.079C38.331,18.8,47.407,9.724,49.909,7.224L46.841,4.156A2.421,2.421,0,0,1,48.548.027L65.461,0a2.419,2.419,0,0,1,2.418,2.42" fill="#5d6d27"/>
      </g>
    </g>
  </g>
</svg>
