<svg xmlns="http://www.w3.org/2000/svg" xmlns:xlink="http://www.w3.org/1999/xlink" width="132" height="132" viewBox="0 0 132 132">
  <defs>
    <clipPath id="clip-path">
      <rect id="Rectangle_1557" data-name="Rectangle 1557" width="82.749" height="82.749" transform="translate(0 0)" fill="none"/>
    </clipPath>
  </defs>
  <g id="Group_5634" data-name="Group 5634" transform="translate(-1426 -3740)">
    <rect id="Rectangle_1603" data-name="Rectangle 1603" width="132" height="132" rx="19" transform="translate(1426 3740)" fill="#f7f7f7"/>
    <g id="Group_5438" data-name="Group 5438" transform="translate(1450.729 3765.941)">
      <g id="Group_5437" data-name="Group 5437" clip-path="url(#clip-path)">
        <path id="Path_6125" data-name="Path 6125" d="M77.885,54.854C67.9,75.8,52.527,80.325,41.375,80.325a39.06,39.06,0,0,1-31.662-16.5C2.392,53.5.646,40.4,4.865,27.9l.776-1.6A39.323,39.323,0,0,1,41.375,2.425a39.058,39.058,0,0,1,31.661,16.5c7.321,10.328,9.067,23.419,4.849,35.928" fill="#555f24"/>
        <path id="Path_6126" data-name="Path 6126" d="M77.885,54.854C67.9,75.8,52.527,80.325,41.375,80.325V2.425a39.058,39.058,0,0,1,31.661,16.5c7.321,10.328,9.067,23.419,4.849,35.928" fill="#555f24"/>
        <path id="Path_6127" data-name="Path 6127" d="M75.024,17.519A41.588,41.588,0,0,0,41.374,0,41.56,41.56,0,0,0,3.264,25.81l-.824,1.7C-2.012,41.064-.279,53.9,7.725,65.23A41.587,41.587,0,0,0,41.374,82.749,41.693,41.693,0,0,0,79.29,57.52l.728-1.454c4.846-13.789,3.148-27.036-4.994-38.547M11.7,62.417c-6.885-9.7-8.485-21.964-4.509-33.746l.63-1.309A36.952,36.952,0,0,1,28.865,7.176C23,14.837,19.459,29.738,19.9,34.586a1.45,1.45,0,0,0-.1.485c-1.261,16.243,2.424,31.92,9.358,40.7A37,37,0,0,1,11.7,62.417M38.95,77.464a13.105,13.105,0,0,1-4.994-3.555c-6.788-7.322-10.521-22.789-9.309-38.45v-.436c0-.146.048-.339.048-.485C26.1,19.459,32.017,7.564,38.95,5.285Zm4.849-.048V5.285c7.466,2.473,13.721,16.21,14.448,32.6.679,15.127-3.1,29.334-9.648,36.219a12.288,12.288,0,0,1-4.8,3.313M75.557,54.078c-5.43,11.443-13.091,18.489-21.964,21.641,6.5-8.194,10.182-22.805,9.5-38.029-.582-12.9-4.218-24.017-9.5-30.708a37.009,37.009,0,0,1,17.455,13.35c6.885,9.7,8.485,21.964,4.509,33.746" fill="#717f31"/>
        <path id="Path_6128" data-name="Path 6128" d="M75.024,17.519A41.588,41.588,0,0,0,41.374,0V82.749A41.693,41.693,0,0,0,79.29,57.52l.728-1.454c4.846-13.789,3.148-27.036-4.994-38.547M43.8,77.416V5.285c7.466,2.473,13.721,16.21,14.448,32.6.679,15.127-3.1,29.334-9.648,36.219a12.288,12.288,0,0,1-4.8,3.313M75.557,54.078c-5.43,11.443-13.091,18.489-21.964,21.641,6.5-8.194,10.182-22.805,9.5-38.029-.582-12.9-4.218-24.017-9.5-30.708a37.009,37.009,0,0,1,17.455,13.35c6.885,9.7,8.485,21.964,4.509,33.746" fill="#717f31"/>
        <path id="Path_6129" data-name="Path 6129" d="M75.315,24.405H7.435A7.4,7.4,0,0,0,0,31.678V51.072a7.4,7.4,0,0,0,7.435,7.273h67.88a7.4,7.4,0,0,0,7.435-7.273V31.678a7.4,7.4,0,0,0-7.435-7.273" fill="#5d6d27"/>
        <path id="Path_6130" data-name="Path 6130" d="M82.749,31.678V51.072a7.4,7.4,0,0,1-7.435,7.273H41.374V24.405h33.94a7.4,7.4,0,0,1,7.435,7.273" fill="#5d6d27"/>
        <path id="Path_6131" data-name="Path 6131" d="M53.254,37.593,48.4,47.29a2.431,2.431,0,0,1-4.363,0l-2.667-5.333L38.708,47.29a2.543,2.543,0,0,1-4.364,0l-4.848-9.7a2.428,2.428,0,0,1,4.363-2.133l2.667,5.333,2.667-5.333a2.518,2.518,0,0,1,4.364,0l2.667,5.333L48.89,35.46a2.429,2.429,0,0,1,4.364,2.133" fill="#fff"/>
        <path id="Path_6132" data-name="Path 6132" d="M70.466,48.648a2.425,2.425,0,0,1-2.169-1.34l-2.68-5.36-2.68,5.36a2.524,2.524,0,0,1-4.337,0l-4.645-9.292a2.4,2.4,0,0,1,1.662-3.9,2.671,2.671,0,0,1,2.472,1.326l2.68,5.36,2.68-5.36a2.524,2.524,0,0,1,4.337,0l2.68,5.36,2.68-5.36a2.425,2.425,0,0,1,4.337,2.169l-4.848,9.7a2.425,2.425,0,0,1-2.169,1.34" fill="#fff"/>
        <path id="Path_6133" data-name="Path 6133" d="M26.7,33.741a2.509,2.509,0,0,0-2.3,1.321l-2.651,5.3-2.652-5.3a2.431,2.431,0,0,0-4.29,0l-2.652,5.3L9.5,35.062a2.4,2.4,0,1,0-4.291,2.145l4.8,9.594a2.4,2.4,0,0,0,4.291,0l2.651-5.3L19.6,46.8a2.4,2.4,0,0,0,4.291,0l4.518-9.036A2.425,2.425,0,0,0,26.7,33.741" fill="#fff"/>
        <path id="Path_6134" data-name="Path 6134" d="M53.254,37.593,48.4,47.29a2.431,2.431,0,0,1-4.363,0l-2.667-5.333V34.2a2.447,2.447,0,0,1,2.182,1.261l2.667,5.333L48.89,35.46a2.429,2.429,0,0,1,4.364,2.133" fill="#fff"/>
      </g>
    </g>
  </g>
</svg>
