<svg xmlns="http://www.w3.org/2000/svg" xmlns:xlink="http://www.w3.org/1999/xlink" width="132" height="132" viewBox="0 0 132 132">
  <defs>
    <clipPath id="clip-path">
      <rect id="Rectangle_1556" data-name="Rectangle 1556" width="77.283" height="77.283" transform="translate(0 0)" fill="none"/>
    </clipPath>
  </defs>
  <g id="Group_5635" data-name="Group 5635" transform="translate(-1057 -3740)">
    <rect id="Rectangle_1602" data-name="Rectangle 1602" width="132" height="132" rx="19" transform="translate(1057 3740)" fill="#f7f7f7"/>
    <g id="Group_5436" data-name="Group 5436" transform="translate(1084.717 3765.941)">
      <g id="Group_5435" data-name="Group 5435" clip-path="url(#clip-path)">
        <path id="Path_6121" data-name="Path 6121" d="M35.795,0A35.795,35.795,0,1,1,0,35.795,35.8,35.8,0,0,1,35.795,0" fill="#717f31"/>
        <path id="Path_6122" data-name="Path 6122" d="M17.614,17.622a25.7,25.7,0,1,1,0,36.346,25.7,25.7,0,0,1,0-36.346" fill="#5d6d27"/>
        <path id="Path_6123" data-name="Path 6123" d="M26.613,28.992a8.2,8.2,0,0,1,2.758-5.3,9.442,9.442,0,0,1,4.023-2.1l-.04-1.653a2.361,2.361,0,0,1,4.72-.112l.043,1.815a13.337,13.337,0,0,1,2.221.8,8.535,8.535,0,0,1,3.516,2.751,2.359,2.359,0,0,1-3.943,2.592,4.58,4.58,0,0,0-1.557-1.054,7.114,7.114,0,0,0-2.559-.713,4.925,4.925,0,0,0-3.279,1.193A3.5,3.5,0,0,0,31.3,29.584v.2a3.454,3.454,0,0,0,1.216,2.573,4.922,4.922,0,0,0,3.279,1.188,9.649,9.649,0,0,1,6.425,2.4,8.022,8.022,0,0,1,0,12.184A9.475,9.475,0,0,1,38.2,50.234l.034,1.424a2.36,2.36,0,1,1-4.719.112l-.036-1.49a8.566,8.566,0,0,1-1.933-.7,13.431,13.431,0,0,1-3.113-2.328,2.362,2.362,0,0,1,3.238-3.44,9.28,9.28,0,0,0,2,1.551,4.583,4.583,0,0,0,2.118.436,4.919,4.919,0,0,0,3.279-1.187,3.331,3.331,0,0,0,0-5.147,4.92,4.92,0,0,0-3.279-1.188,9.646,9.646,0,0,1-6.424-2.4,8.144,8.144,0,0,1-2.8-6.092v-.789Z" fill="#f0f0f0"/>
        <path id="Path_6124" data-name="Path 6124" d="M48.73,48.128,73.591,56.8a.472.472,0,0,1,.069.863l-6.5,3.507,9.889,9.889a.791.791,0,0,1,0,1.116l-4.876,4.876a.789.789,0,0,1-1.114,0l-9.889-9.889-3.509,6.5a.473.473,0,0,1-.863-.069L48.127,48.73a.473.473,0,0,1,.6-.6Z" fill="#434c1f"/>
      </g>
    </g>
  </g>
</svg>
