<svg xmlns="http://www.w3.org/2000/svg" xmlns:xlink="http://www.w3.org/1999/xlink" width="132" height="132" viewBox="0 0 132 132">
  <defs>
    <clipPath id="clip-path">
      <rect id="Rectangle_1505" data-name="Rectangle 1505" width="78.107" height="78.105" fill="none"/>
    </clipPath>
  </defs>
  <g id="Group_5630" data-name="Group 5630" transform="translate(-894 -1313)">
    <rect id="Rectangle_1564" data-name="Rectangle 1564" width="132" height="132" rx="19" transform="translate(894 1313)" fill="#f7f7f7"/>
    <g id="Group_5346" data-name="Group 5346" transform="translate(920.946 1337.041)">
      <g id="Group_5345" data-name="Group 5345" transform="translate(0 0)" clip-path="url(#clip-path)">
        <path id="Path_5954" data-name="Path 5954" d="M39.054,61.392V75.608q-.529,0-1.056-.013c-.151-.005-.3-.009-.454-.016s-.331-.013-.493-.021h-.009l-.371-.021c-.177-.01-.353-.024-.529-.037-.118-.008-.235-.017-.353-.028-.188-.014-.374-.03-.56-.049h-.013l-.3-.033c-.026,0-.051,0-.077-.008-.1-.009-.2-.021-.294-.031a.308.308,0,0,1-.034-.005l-.243-.028c-.062-.009-.123-.016-.186-.024-.122-.016-.244-.03-.363-.047l-.2-.029c-.226-.033-.453-.066-.677-.1l-.319-.052c-.014,0-.03,0-.046-.008-.215-.037-.43-.075-.643-.115-.111-.02-.223-.041-.334-.064-.156-.03-.311-.06-.467-.094-.177-.037-.354-.075-.529-.114-.11-.025-.22-.049-.331-.075-.414-.1-.828-.2-1.237-.31-.113-.029-.226-.06-.337-.092-.025-.007-.047-.014-.072-.02l-.3-.085L28.2,74.08q-.317-.091-.636-.189c-.2-.06-.388-.121-.582-.184l-.055-.018q-.319-.1-.635-.214c-.21-.071-.42-.146-.628-.222-.163-.06-.325-.121-.487-.182l-.039-.014-.008,0c-.083-.03-.165-.062-.245-.094l-.024-.009c-.085-.031-.171-.066-.256-.1s-.188-.075-.281-.113c-.172-.07-.345-.142-.517-.215l-.018-.007c-.169-.072-.338-.146-.506-.22l-.155-.068c-.178-.08-.355-.16-.533-.243s-.379-.178-.569-.27l-.094-.047c-.174-.085-.35-.172-.525-.261q-.3-.15-.585-.3c-.134-.071-.265-.14-.393-.212l-.068-.037c-.075-.038-.147-.079-.22-.121-.15-.083-.3-.167-.445-.251s-.272-.155-.405-.236c-.1-.056-.2-.115-.3-.176-.14-.084-.279-.168-.418-.254a.153.153,0,0,1-.033-.021h0A39.055,39.055,0,0,1,12.4,8.011c1.661,1.553,3.551,3.429,5.542,5.473.2.2.4.408.6.616l.494.512.033.034c.173.178.345.359.521.542q.728.757,1.465,1.535l.546.576.79.838a24.776,24.776,0,0,0-8.174,18.418c0,.134,0,.265,0,.4,0,.115,0,.232.008.348.012.409.033.816.066,1.222.01.122.02.244.031.365.014.144.028.287.045.432.012.121.028.243.043.363q.049.411.117.818c.017.109.034.216.054.324s.035.207.055.31q.112.608.256,1.207c.056.241.118.479.184.716.025.1.052.2.081.3s.055.2.087.291c.049.168.1.333.152.5.038.121.077.24.117.359l.007.02c.066.192.132.383.2.573.021.062.043.122.067.182.035.094.072.189.108.282s.072.185.11.275q.293.73.632,1.436c.051.108.1.216.157.323a24.126,24.126,0,0,0,1.208,2.152c.039.066.08.13.123.2q.181.287.37.563c.064.094.129.188.194.279s.14.2.214.3.146.2.218.3.148.2.223.3l.226.29c.076.1.155.192.231.286s.156.189.235.285q.6.71,1.246,1.373c.083.084.165.168.249.251s.186.185.281.277l.248.235c.089.085.178.168.27.251.155.14.308.277.466.413l.184.157.184.155c.071.058.142.118.214.176.189.153.382.307.576.454q.116.09.232.177c.243.182.489.359.737.531a24.726,24.726,0,0,0,14.127,4.406" transform="translate(0 2.497)" fill="#505e2b"/>
        <path id="Path_5955" data-name="Path 5955" d="M68.828,29.774A39.053,39.053,0,0,1,29.774,68.827V54.611A24.838,24.838,0,0,0,54.612,29.774Z" transform="translate(9.28 9.279)" fill="#7d9144"/>
        <path id="Path_5956" data-name="Path 5956" d="M75.16,39.053H60.944a24.846,24.846,0,0,0-17-23.571h0c-.146-.05-.291-.1-.438-.143-.115-.034-.232-.071-.349-.1-.083-.024-.167-.049-.251-.071q-.181-.053-.366-.1c-.157-.043-.316-.083-.475-.122s-.3-.072-.449-.106c-.024-.005-.05-.012-.076-.016-.126-.03-.253-.056-.379-.083l-.089-.018q-.468-.094-.943-.173h-.009c-.161-.026-.323-.051-.487-.073s-.329-.047-.5-.066-.329-.039-.493-.056h-.005l-.5-.046q-.218-.018-.437-.031l-.148-.009c-.142-.008-.285-.016-.426-.02s-.31-.012-.464-.016h-.106c-.15,0-.3,0-.451,0a24.742,24.742,0,0,0-16.66,6.415l-.791-.837-.546-.577q-.738-.775-1.465-1.535c-.176-.181-.348-.363-.519-.542l-.034-.033q-.248-.26-.494-.513l-.6-.616c-1.991-2.044-3.881-3.92-5.542-5.473A39.1,39.1,0,0,1,50.337,2.674h0l.152.06c.1.041.206.081.308.125q.447.181.888.374c.111.047.223.1.333.146L52.3,3.5q.063.031.126.059c.087.039.173.08.261.122q1.035.484,2.04,1.031c.114.06.228.125.342.189.575.317,1.139.652,1.693,1l.363.228q.811.517,1.592,1.076c.126.089.249.177.371.268q.641.466,1.262.959c.094.073.188.148.281.224q1.4,1.131,2.69,2.385c.085.083.172.167.257.252a38.856,38.856,0,0,1,2.894,3.2c.064.079.127.156.189.236.353.439.693.887,1.024,1.34.077.1.153.211.228.317q.565.789,1.089,1.609c.052.079.1.159.153.24.289.454.565.914.834,1.382.067.115.132.231.2.348.091.157.178.316.264.477.058.1.114.21.171.316.066.122.13.245.193.367s.112.215.165.323c.109.216.218.433.321.652.054.11.1.218.157.328s.1.219.153.331.1.22.15.332q.189.415.365.838c.042.1.083.193.121.29q.266.641.506,1.3c.035.094.071.189.1.283.042.117.083.231.125.346q.464,1.326.834,2.7c.03.111.059.222.088.333q.091.336.169.677c.024.091.045.18.066.27s.043.189.064.283q.224.982.395,1.985c.034.2.066.391.1.586.02.123.038.249.056.373s.034.239.051.359c.055.407.1.813.148,1.224.01.1.02.2.029.3.012.125.025.251.035.378.013.148.026.3.037.447s.021.289.03.433c.009.123.017.249.022.374.005.091.009.18.014.27.013.272.025.544.031.817,0,.094.005.188.007.282,0,.119.005.239.007.358,0,.156,0,.313,0,.471" transform="translate(2.947 0)" fill="#698037"/>
        <path id="Path_5957" data-name="Path 5957" d="M19.748,32.69l4.207-4.206a.338.338,0,0,1,.479,0L29.546,33.6a.338.338,0,0,0,.479,0L42.178,21.443a.338.338,0,0,1,.479,0l4.207,4.206a.338.338,0,0,1,0,.479L30.025,42.967a.338.338,0,0,1-.479,0l-9.8-9.8a.338.338,0,0,1,0-.479" transform="translate(6.124 6.652)" fill="#7d9144"/>
      </g>
    </g>
  </g>
</svg>
