<svg xmlns="http://www.w3.org/2000/svg" xmlns:xlink="http://www.w3.org/1999/xlink" width="132" height="132" viewBox="0 0 132 132">
  <defs>
    <clipPath id="clip-path">
      <rect id="Rectangle_1504" data-name="Rectangle 1504" width="75.206" height="75.251" fill="none"/>
    </clipPath>
  </defs>
  <g id="Group_5631" data-name="Group 5631" transform="translate(-571 -1313)">
    <rect id="Rectangle_1563" data-name="Rectangle 1563" width="132" height="132" rx="19" transform="translate(571 1313)" fill="#f7f7f7"/>
    <g id="Group_5344" data-name="Group 5344" transform="translate(599.397 1341.375)">
      <g id="Group_5343" data-name="Group 5343" transform="translate(0 0)" clip-path="url(#clip-path)">
        <path id="Path_5952" data-name="Path 5952" d="M54.7,25.946a20.834,20.834,0,0,0-2.478-2.985l.045-.045a20.758,20.758,0,0,0-14.642-6.048V0H29.843V11.676l-5.06,2.095L16.526,5.517,5.517,16.525l8.257,8.257-2.1,5.058H0v7.786H16.868A20.761,20.761,0,0,0,33.735,58.019c.176.034.349.064.525.092a20.759,20.759,0,0,0,15.033-3.317l0,0c.021-.017.041-.03.062-.045l.22-.152.075-.054c.026-.02.051-.037.077-.054h-.005A20.773,20.773,0,0,0,54.7,25.946m-.233,12.673c0,.054-.007.108-.009.16-.005.1-.014.2-.022.291,0,.03-.005.06-.009.091s0,.052-.007.079l-.02.18c-.014.129-.028.254-.045.38,0,.022-.007.041-.008.06s-.005.033-.007.05l-.02.136v0c-.01.075-.021.152-.034.224-.014.088-.03.177-.045.268l-.046.244c-.014.081-.031.16-.049.241v0l-.051.243c-.009.031-.017.066-.024.1-.009.05-.021.1-.033.146v0c-.026.109-.051.22-.081.328a16.521,16.521,0,0,1-.544,1.723c-.029.077-.059.155-.089.232-.1.248-.2.489-.306.731-.033.076-.067.148-.1.22-.009.016-.017.035-.026.052-.031.07-.066.139-.1.209s-.079.159-.117.239l-.122.235c-.051.094-.1.186-.152.281-.075.14-.155.279-.236.417s-.181.3-.278.454c-.047.076-.1.151-.143.227-.16.244-.328.483-.5.72-.035.051-.075.1-.115.156-.262.354-.543.7-.838,1.032-.075.088-.152.173-.233.258s-.156.172-.24.254-.147.155-.222.231c-.256.254-.522.5-.8.748-.081.07-.163.143-.247.211-.176.152-.355.3-.539.439-.088.07-.18.139-.269.207-.2.15-.4.292-.609.432-.076.054-.153.108-.235.161-.139.089-.278.18-.422.268A16.838,16.838,0,0,1,38.1,54.492h-.475a16.871,16.871,0,0,1-11.785-4.8c-.167-.16-.327-.327-.483-.493-.227-.237-.443-.484-.653-.735-.092-.106-.182-.218-.268-.327-.037-.043-.068-.087-.1-.127-.081-.1-.161-.21-.239-.316-.1-.126-.19-.257-.281-.387l-.013-.02c-.092-.131-.181-.264-.269-.4l-.005-.007c-.079-.119-.153-.237-.226-.357-.172-.274-.334-.555-.491-.834-.108-.2-.214-.407-.315-.613q-.055-.108-.106-.22c-.026-.054-.051-.108-.077-.163-.038-.081-.075-.163-.111-.247-.047-.1-.094-.209-.136-.316s-.091-.214-.131-.321v0c-.043-.106-.084-.214-.122-.321s-.081-.215-.118-.327-.077-.219-.114-.329-.07-.22-.1-.332c-.064-.207-.123-.417-.177-.627,0-.016-.009-.03-.01-.045-.03-.114-.058-.227-.087-.341s-.052-.227-.075-.34c-.071-.319-.129-.64-.177-.961-.016-.093-.028-.188-.041-.282-.01-.068-.02-.136-.026-.2s-.014-.108-.021-.163-.014-.132-.021-.2c-.029-.283-.052-.565-.064-.85-.007-.109-.01-.218-.016-.327,0-.056,0-.111,0-.169v-.071c0-.064,0-.129,0-.193,0-.289.005-.58.02-.871,0-.092.007-.186.013-.278.02-.3.045-.593.081-.891v-.025c.005-.043.012-.085.018-.131.008-.088.021-.18.034-.268.025-.174.052-.348.083-.523a.28.28,0,0,0,0-.033c.012-.055.02-.113.033-.169.02-.1.041-.211.062-.316,0-.01.005-.02.005-.028a.127.127,0,0,1,.008-.028c.013-.07.028-.138.043-.2s.035-.156.052-.233v0l.071-.29.02-.072q.022-.087.047-.169c.014-.062.031-.125.049-.186a.471.471,0,0,0,.016-.051l0-.014c.028-.1.055-.193.085-.287v0c.022-.06.037-.121.06-.178,0-.013.007-.025.01-.038s.013-.043.02-.067.014-.041.024-.064.024-.076.038-.115h0c.025-.081.054-.163.081-.243l0-.008c.037-.1.071-.2.109-.294.067-.186.142-.367.219-.55.038-.1.081-.2.123-.292l.007-.016c.045-.1.092-.2.139-.3.009-.024.021-.046.033-.07.055-.122.113-.239.174-.357.009-.021.02-.043.03-.064.033-.064.067-.129.1-.193q.173-.336.366-.661c.039-.071.08-.139.122-.207s.084-.142.129-.212c.034-.055.068-.113.108-.168s.07-.111.106-.168c.05-.075.1-.15.15-.224l.017-.024c.03-.047.063-.1.1-.143a.314.314,0,0,1,.039-.054.886.886,0,0,1,.064-.092c.028-.043.059-.085.089-.129.1-.146.212-.287.321-.428l.007-.01c.054-.07.106-.135.16-.2.02-.024.039-.047.058-.071l.114-.139.052-.064.121-.14.106-.125c.058-.066.115-.13.174-.194s.136-.152.2-.226c.02-.021.039-.041.058-.062s.03-.034.047-.049a.4.4,0,0,1,.047-.047V25.96c.045-.046.089-.092.135-.136l.054-.054a.727.727,0,0,1,.055-.055c.013-.016.028-.03.041-.043.13-.13.261-.257.4-.38a.215.215,0,0,1,.031-.028.14.14,0,0,1,.033-.03c.045-.043.089-.085.136-.126l.064-.059c.024-.022.049-.045.075-.066l.017-.016a.44.44,0,0,1,.038-.031c.2-.18.412-.353.623-.518.121-.1.24-.19.362-.278s.237-.18.357-.261a.043.043,0,0,1,.022-.014c.062-.047.123-.091.188-.135s.125-.085.186-.126c.021-.016.041-.028.062-.041.075-.05.151-.1.223-.146s.153-.1.231-.143a.068.068,0,0,1,.024-.016c.08-.051.161-.1.241-.146l.016-.01.251-.143c.034-.022.071-.041.1-.058l.009-.005c.15-.085.3-.167.451-.245.1-.05.193-.1.291-.148.068-.034.136-.066.207-.1.041-.02.081-.039.122-.056s.075-.038.113-.054c.054-.025.108-.051.161-.072l.224-.1.136-.058c.108-.045.214-.089.321-.13l0,0c.106-.043.214-.084.32-.122s.22-.081.328-.118l.291-.1c.123-.041.248-.081.373-.117s.222-.067.336-.1q.356-.1.719-.186c.1-.024.2-.045.3-.066.059-.013.117-.026.174-.037.039-.009.075-.014.114-.021.315-.064.631-.118.952-.161.094-.012.19-.025.285-.034s.19-.024.286-.031h.024a.468.468,0,0,1,.073-.009c.025,0,.051,0,.076-.007.073-.008.148-.014.22-.018a16.664,16.664,0,0,1,5.215.4c.235.058.468.118.7.184.13.037.258.073.384.114.068.021.139.042.207.064l.134.045c.058.02.115.038.171.058.135.045.27.092.4.143.111.041.222.084.333.129A16.158,16.158,0,0,1,46.11,23.04l.291.173c.139.083.278.171.416.261l.139.092c.047.028.092.06.136.091.159.106.315.215.468.329.043.031.087.062.129.1a.419.419,0,0,1,.058.041l.214.163c.063.05.127.1.189.148.122.1.244.2.362.3.089.075.18.15.265.23s.176.153.258.232.172.157.254.239.155.15.232.224c.185.186.367.376.543.569.064.068.129.139.188.21.08.085.155.173.23.261s.148.18.22.269.148.18.216.27.143.184.211.275.135.182.2.274.134.19.2.289v0l.075.106.119.178c.024.038.047.072.071.111.039.059.077.121.115.181v0l.039.058c.049.079.1.156.143.235l.025.043.151.254c.007.017.017.03.025.047l.148.264c.054.1.1.2.156.3v0c.055.1.106.2.159.308h0c.035.076.075.148.109.226.014.03.028.058.038.085s.021.045.033.067c.109.235.214.475.312.716.092.224.18.451.261.678.028.08.055.159.083.24.056.16.11.323.159.485.077.251.15.5.214.756.022.085.043.169.064.253s.041.171.06.254c.037.171.075.342.106.515.016.076.029.153.043.231.024.129.045.258.064.387,0,.024.007.047.009.068s.008.052.012.077c.013.092.029.184.037.277.017.119.03.235.043.353h0c.008.087.017.172.024.257.012.126.024.254.031.38,0,.022,0,.046,0,.067v0c0,.03,0,.064.005.093,0,.064.008.125.01.189v.01c0,.058.007.115.007.173.007.088.008.178.008.268,0,.109,0,.22,0,.332,0,.336-.01.674-.031,1.01" transform="translate(0 0)" fill="#698037"/>
        <path id="Path_5953" data-name="Path 5953" d="M69.709,58.714l-8.237,8.261.008.007-2.752,2.754L50.47,61.479l-5.06,2.095V75.251H29.842V63.574l-5.06-2.095-8.257,8.257L5.516,58.727l8.257-8.257-2.1-5.06H0V37.626H16.867A20.761,20.761,0,0,0,33.734,58.019c.176.034.349.064.525.092A20.764,20.764,0,0,0,49.291,54.8h0c.021-.017.041-.03.062-.045l.22-.152c.026-.017.052-.037.075-.054s.052-.035.077-.054h0a20.769,20.769,0,0,0,2.5-31.53l.046-.046a20.762,20.762,0,0,0-14.642-6.048V0H45.41V11.676l5.06,2.095,8.257-8.254L69.736,16.525l-8.257,8.257,2.095,5.058H75.18l.02,11.678.007,3.871-11.679.018-2.088,5.064,4.036,4.021Z" transform="translate(0 0)" fill="#505e2b"/>
      </g>
    </g>
  </g>
</svg>
